<svg width="200" height="40" viewBox="0 0 200 40" fill="none" xmlns="http://www.w3.org/2000/svg">
<path fill-rule="evenodd" clip-rule="evenodd" d="M63.0195 9.48852C56.8554 9.48852 54.8669 11.5724 54.8669 16.7791V28.4087C54.8669 28.9468 55.1391 29.2004 55.6526 29.2004H59.0066C59.5204 29.2004 59.7621 28.9468 59.7621 28.4087V17.7482C59.7621 14.7332 60.5477 13.8021 63.4971 13.8021H72.6106C73.0213 13.8021 73.2267 13.6247 73.2267 13.156V10.1409C73.2267 9.71022 73.0213 9.49486 72.6106 9.49486H63.0195V9.48852ZM83.3678 9.48852C77.2034 9.48852 75.2152 11.5724 75.2152 16.7791V21.9477C75.2152 27.1543 77.2034 29.2004 83.3678 29.2004H98.1316C98.5427 29.2004 98.7481 28.9849 98.7481 28.5543V25.5392C98.7481 25.1084 98.5427 24.8931 98.1316 24.8931H83.845C80.8659 24.8931 80.0802 23.962 80.0802 21.7007V20.8393H97.3761C98.7118 20.8393 99.3283 20.3389 99.3283 18.7934V15.3856C99.3283 11.0404 98.0953 9.49486 93.3998 9.49486H83.3617L83.3678 9.48852ZM80.0802 16.6714C80.0802 14.3721 80.8659 13.479 83.845 13.479H92.4447C94.0221 13.479 94.5359 14.0554 94.5359 15.5249V17.0324C94.5359 17.5012 94.3668 17.6405 93.9556 17.6405H80.0802V16.6714ZM103.673 0C103.16 0 102.888 0.253359 102.888 0.791774V21.9477C102.888 27.1543 104.876 29.2004 111.04 29.2004H120.631C126.795 29.2004 128.784 27.1543 128.784 21.9477V16.7791C128.784 11.5724 126.795 9.48852 120.631 9.48852H107.789V0.791774C107.789 0.253359 107.547 0 107.034 0H103.68H103.673ZM120.148 13.7957C123.127 13.7957 123.913 14.7268 123.913 17.7419V20.9343C123.913 23.9493 123.127 24.8804 120.148 24.8804H111.518C108.575 24.8804 107.783 23.9493 107.783 20.9343V13.7894H120.148V13.7957ZM133.232 9.48852C132.821 9.48852 132.615 9.70388 132.615 10.1346V13.1497C132.615 13.6184 132.821 13.7957 133.232 13.7957H147.548C150.528 13.7957 151.283 14.6952 151.283 16.9881V17.6722H137.341C133.298 17.6722 132.065 19.3571 132.065 22.3784V24.1013C132.065 27.6547 133.298 29.2004 137.341 29.2004H153.646C155.635 29.2004 156.179 28.6619 156.179 26.3309V16.7791C156.179 11.5724 154.19 9.48852 148.026 9.48852H133.226H133.232ZM150.292 25.2478H138.749C137.347 25.2478 136.834 24.6714 136.834 23.3792V22.6255C136.834 21.479 137.347 20.8646 138.749 20.8646H151.289V24.0253C151.289 24.9248 151.017 25.2478 150.298 25.2478H150.292ZM158.892 9.48852C158.481 9.48852 158.276 9.70388 158.276 10.1346V13.08C158.276 13.5107 158.481 13.726 158.892 13.726H162.143V22.0554C162.143 27.1543 163.618 29.2004 169.099 29.2004H173.245C173.692 29.2004 173.862 28.9849 173.862 28.5543V25.6089C173.862 25.1781 173.692 24.9628 173.245 24.9628H169.921C167.661 24.9628 167.044 24.0317 167.044 22.0554V13.726H173.04C173.487 13.726 173.656 13.5107 173.656 13.08V10.1346C173.656 9.70388 173.487 9.48852 173.04 9.48852H167.044V0.791774C167.044 0.253359 166.773 0 166.289 0H162.899C162.421 0 162.143 0.253359 162.143 0.791774V9.48852H158.892ZM184.033 9.48852C177.868 9.48852 175.88 11.5724 175.88 16.7791V21.9477C175.88 27.1543 177.868 29.2004 184.033 29.2004H198.797C199.207 29.2004 199.413 28.9849 199.413 28.5543V25.5392C199.413 25.1084 199.207 24.8931 198.797 24.8931H184.51C181.531 24.8931 180.745 23.962 180.745 21.7007V20.8393H198.041C199.376 20.8393 199.993 20.3389 199.993 18.7934V15.3856C199.993 11.0404 198.76 9.49486 194.064 9.49486H184.026L184.033 9.48852ZM180.745 16.6714C180.745 14.3721 181.531 13.479 184.51 13.479H193.11C194.687 13.479 195.201 14.0554 195.201 15.5249V17.0324C195.201 17.5012 195.031 17.6405 194.621 17.6405H180.745V16.6714Z" fill="white"/>
<path fill-rule="evenodd" clip-rule="evenodd" d="M40.9742 36.8732C40.7023 38.6404 39.2338 40.0023 37.475 40.0023H3.54747C1.59544 40.0023 0 38.3302 0 36.2842V12.0308C0 10.1875 1.29932 8.64834 2.98542 8.36328C2.95522 8.55332 2.94312 8.74966 2.94312 8.95238V33.2057C2.94312 35.2517 4.5386 36.9238 6.49059 36.9238H40.4183C40.6115 36.9238 40.7989 36.9049 40.9803 36.8796L40.9742 36.8732Z" fill="#073E60"/>
<path fill-rule="evenodd" clip-rule="evenodd" d="M44.9388 32.7112C44.6669 34.4783 43.1984 35.8402 41.4396 35.8402H7.51207C5.56008 35.8402 3.9646 34.1678 3.9646 32.1221V7.86864C3.9646 6.0254 5.26392 4.48623 6.95006 4.20117C6.91982 4.39121 6.90772 4.58755 6.90772 4.79027V29.0436C6.90772 31.0896 8.5032 32.7617 10.4552 32.7617H44.3829C44.5761 32.7617 44.7635 32.7429 44.9449 32.7176L44.9388 32.7112Z" fill="#073E60"/>
<path d="M45.4099 0H11.4823C9.52307 0 7.93481 1.66468 7.93481 3.71811V27.9653C7.93481 30.0185 9.52307 31.6834 11.4823 31.6834H45.4099C47.369 31.6834 48.9575 30.0185 48.9575 27.9653V3.71811C48.9575 1.66468 47.369 0 45.4099 0Z" fill="url(#paint0_linear_1553_20591)"/>
<path d="M45.4099 0H11.4823C9.52307 0 7.93481 1.66468 7.93481 3.71811V27.9653C7.93481 30.0185 9.52307 31.6834 11.4823 31.6834H45.4099C47.369 31.6834 48.9575 30.0185 48.9575 27.9653V3.71811C48.9575 1.66468 47.369 0 45.4099 0Z" fill="url(#paint1_linear_1553_20591)"/>
<path fill-rule="evenodd" clip-rule="evenodd" d="M54.7781 33.1875C54.6269 33.1875 54.6029 33.2762 54.6391 33.3966L55.8779 37.4124C56.0108 37.843 56.1681 37.9505 56.5124 37.9505H57.5519C57.842 37.9505 57.963 37.8177 58.1081 37.4124L59.1896 34.2452C59.1957 34.2135 59.2198 34.1947 59.2621 34.1947H59.3106C59.353 34.1947 59.377 34.2135 59.3831 34.2452L60.4768 37.4124C60.6158 37.8177 60.7429 37.9505 61.033 37.9505H62.0725C62.4169 37.9505 62.5742 37.8494 62.707 37.4124L63.9641 33.3966C63.9943 33.2762 63.9641 33.1875 63.8251 33.1875H62.8883C62.7734 33.1875 62.7131 33.2381 62.7009 33.3267L61.6251 36.8928C61.6072 36.9373 61.5828 36.9562 61.5404 36.9562H61.5102C61.4621 36.9562 61.4377 36.9373 61.4259 36.8928L60.3199 33.6056C60.2111 33.295 60.0901 33.1875 59.7882 33.1875H58.8029C58.5067 33.1875 58.3799 33.2886 58.2711 33.6056L57.153 36.8928C57.1469 36.9373 57.1228 36.9562 57.0686 36.9562H57.0384C56.9961 36.9562 56.9716 36.9373 56.9537 36.8928L55.884 33.3267C55.8596 33.2381 55.7993 33.1875 55.6966 33.1875H54.7598H54.7781Z" fill="#B38E36"/>
<path fill-rule="evenodd" clip-rule="evenodd" d="M64.8342 31.4414C64.7074 31.4414 64.6528 31.5048 64.6528 31.6312V37.7501C64.6528 37.8833 64.7135 37.9403 64.8342 37.9403H65.6442C65.771 37.9403 65.8255 37.8769 65.8255 37.7501V34.2791H68.8593C69.5724 34.2791 69.7114 34.5071 69.7114 35.2354V37.7501C69.7114 37.8833 69.7717 37.9403 69.8927 37.9403H70.7024C70.8295 37.9403 70.8837 37.8769 70.8837 37.7501V34.944C70.8837 33.6901 70.4062 33.1833 68.9135 33.1833H65.8194V31.6312C65.8194 31.4984 65.7588 31.4414 65.6381 31.4414H64.8281H64.8342Z" fill="#B38E36"/>
<path fill-rule="evenodd" clip-rule="evenodd" d="M73.7051 33.1861C72.2185 33.1861 71.7349 33.6865 71.7349 34.9469V36.1948C71.7349 37.4487 72.2124 37.9427 73.7051 37.9427H77.2706C77.3672 37.9427 77.4218 37.8921 77.4218 37.7846V37.0563C77.4218 36.9548 77.3733 36.8978 77.2706 36.8978H73.82C73.1008 36.8978 72.9072 36.6699 72.9072 36.125V35.9159H77.0832C77.4034 35.9159 77.5546 35.7955 77.5546 35.4219V34.5986C77.5546 33.5469 77.2584 33.1797 76.1223 33.1797H73.699L73.7051 33.1861ZM72.9133 34.9216C72.9133 34.3642 73.1069 34.1487 73.8261 34.1487H75.9047C76.2857 34.1487 76.4063 34.288 76.4063 34.6427V35.0038C76.4063 35.1178 76.3643 35.1495 76.2674 35.1495H72.9194V34.9152L72.9133 34.9216Z" fill="#B38E36"/>
<path fill-rule="evenodd" clip-rule="evenodd" d="M80.3894 33.1847C78.9029 33.1847 78.4192 33.6851 78.4192 34.9455V37.7515C78.4192 37.8843 78.4856 37.9417 78.6066 37.9417H79.4163C79.5434 37.9417 79.5976 37.8783 79.5976 37.7515V35.1734C79.5976 34.4451 79.7851 34.2172 80.4982 34.2172H82.6978C82.7948 34.2172 82.849 34.1726 82.849 34.0587V33.3304C82.849 33.2289 82.8005 33.1719 82.6978 33.1719H80.3833L80.3894 33.1847Z" fill="#B38E36"/>
<path fill-rule="evenodd" clip-rule="evenodd" d="M85.3021 33.1861C83.8156 33.1861 83.3323 33.6865 83.3323 34.9469V36.1948C83.3323 37.4487 83.8095 37.9427 85.3021 37.9427H88.868C88.9646 37.9427 89.0188 37.8921 89.0188 37.7846V37.0563C89.0188 36.9548 88.9707 36.8978 88.868 36.8978H85.417C84.6978 36.8978 84.5046 36.6699 84.5046 36.125V35.9159H88.6806C89.0009 35.9159 89.152 35.7955 89.152 35.4219V34.5986C89.152 33.5469 88.8558 33.1797 87.7197 33.1797H85.2964L85.3021 33.1861ZM84.5107 34.9216C84.5107 34.3642 84.6978 34.1487 85.4231 34.1487H87.5021C87.8827 34.1487 88.0037 34.288 88.0037 34.6427V35.0038C88.0037 35.1178 87.9614 35.1495 87.8648 35.1495H84.5165V34.9152L84.5107 34.9216Z" fill="#B38E36"/>
<path fill-rule="evenodd" clip-rule="evenodd" d="M94.5976 33.1861C93.1111 33.1861 92.6274 33.6865 92.6274 34.9469V36.1948C92.6274 37.4487 93.105 37.9427 94.5976 37.9427H98.1632C98.2601 37.9427 98.3143 37.8921 98.3143 37.7846V37.0563C98.3143 36.9548 98.2662 36.8978 98.1632 36.8978H94.7125C93.9933 36.8978 93.8001 36.6699 93.8001 36.125V35.9159H97.9761C98.2964 35.9159 98.4475 35.7955 98.4475 35.4219V34.5986C98.4475 33.5469 98.1513 33.1797 97.0152 33.1797H94.5915L94.5976 33.1861ZM93.8059 34.9216C93.8059 34.3642 93.9933 34.1487 94.7186 34.1487H96.7976C97.1782 34.1487 97.2993 34.288 97.2993 34.6427V35.0038C97.2993 35.1178 97.2569 35.1495 97.1603 35.1495H93.812V34.9152L93.8059 34.9216Z" fill="#B38E36"/>
<path fill-rule="evenodd" clip-rule="evenodd" d="M98.9418 33.1875C98.8268 33.1875 98.7784 33.2886 98.833 33.4026L101.099 37.5581C101.256 37.843 101.419 37.9505 101.788 37.9505H102.465C102.839 37.9505 103.003 37.8494 103.16 37.5581L105.426 33.4026C105.486 33.2886 105.432 33.1875 105.317 33.1875H104.399C104.29 33.1875 104.242 33.2317 104.199 33.3079L102.247 36.8864C102.223 36.9309 102.199 36.9373 102.157 36.9373H102.126C102.084 36.9373 102.06 36.9309 102.036 36.8864L100.09 33.3079C100.048 33.2192 99.9931 33.1875 99.8904 33.1875H98.9418Z" fill="#B38E36"/>
<path fill-rule="evenodd" clip-rule="evenodd" d="M107.409 33.1861C105.922 33.1861 105.439 33.6865 105.439 34.9469V36.1948C105.439 37.4487 105.916 37.9427 107.409 37.9427H110.974C111.071 37.9427 111.126 37.8921 111.126 37.7846V37.0563C111.126 36.9548 111.077 36.8978 110.974 36.8978H107.523C106.804 36.8978 106.611 36.6699 106.611 36.125V35.9159H110.787C111.107 35.9159 111.258 35.7955 111.258 35.4219V34.5986C111.258 33.5469 110.962 33.1797 109.826 33.1797H107.403L107.409 33.1861ZM106.617 34.9216C106.617 34.3642 106.804 34.1487 107.53 34.1487H109.609C109.989 34.1487 110.11 34.288 110.11 34.6427V35.0038C110.11 35.1178 110.068 35.1495 109.971 35.1495H106.623V34.9152L106.617 34.9216Z" fill="#B38E36"/>
<path fill-rule="evenodd" clip-rule="evenodd" d="M114.093 33.1847C112.606 33.1847 112.123 33.6851 112.123 34.9455V37.7515C112.123 37.8843 112.189 37.9417 112.31 37.9417H113.12C113.247 37.9417 113.302 37.8783 113.302 37.7515V35.1734C113.302 34.4451 113.489 34.2172 114.202 34.2172H116.402C116.498 34.2172 116.553 34.1726 116.553 34.0587V33.3304C116.553 33.2289 116.504 33.1719 116.402 33.1719H114.087L114.093 33.1847Z" fill="#B38E36"/>
<path fill-rule="evenodd" clip-rule="evenodd" d="M122.275 33.1875C122.178 33.1875 122.118 33.2192 122.075 33.3079L120.13 36.8422C120.057 36.8422 120.021 36.7977 119.93 36.646L118.093 33.3079C118.051 33.2192 117.996 33.1875 117.893 33.1875H116.945C116.83 33.1875 116.781 33.2886 116.836 33.4026L119.072 37.4437C119.205 37.6845 119.326 37.7924 119.604 37.8177L119.157 38.6411C119.084 38.7803 118.957 38.8373 118.734 38.8373H118.244C118.147 38.8373 118.093 38.8883 118.093 38.9958V39.7052C118.093 39.8064 118.141 39.8637 118.244 39.8637H118.824C119.537 39.8637 119.918 39.6735 120.13 39.2743L123.308 33.4026C123.369 33.2886 123.314 33.1875 123.2 33.1875H122.275Z" fill="#B38E36"/>
<path fill-rule="evenodd" clip-rule="evenodd" d="M126.445 33.1829C126.348 33.1829 126.293 33.2334 126.293 33.341V34.0504C126.293 34.1519 126.342 34.2089 126.445 34.2089H127.23V36.2232C127.23 37.4519 127.587 37.9459 128.91 37.9459H129.914C130.022 37.9459 130.064 37.8953 130.064 37.7878V37.0783C130.064 36.9768 130.022 36.9198 129.914 36.9198H129.11C128.566 36.9198 128.415 36.6919 128.415 36.2168V34.2025H129.865C129.974 34.2025 130.016 34.1519 130.016 34.044V33.3346C130.016 33.2334 129.974 33.1764 129.865 33.1764H128.415V32.03C128.415 31.8968 128.348 31.8398 128.233 31.8398H127.412C127.297 31.8398 127.23 31.9032 127.23 32.03V33.1764H126.445V33.1829Z" fill="#B38E36"/>
<path fill-rule="evenodd" clip-rule="evenodd" d="M132.67 33.1808C131.183 33.1808 130.7 33.6812 130.7 34.9416V37.7476C130.7 37.8804 130.767 37.9378 130.887 37.9378H131.697C131.824 37.9378 131.879 37.8744 131.879 37.7476V35.1695C131.879 34.4412 132.066 34.2133 132.779 34.2133H134.979C135.075 34.2133 135.13 34.1687 135.13 34.0548V33.3265C135.13 33.225 135.082 33.168 134.979 33.168H132.664L132.67 33.1808Z" fill="#B38E36"/>
<path fill-rule="evenodd" clip-rule="evenodd" d="M135.897 33.1875C135.8 33.1875 135.746 33.2381 135.746 33.3456V34.0743C135.746 34.1883 135.794 34.2324 135.897 34.2324H139.354C140.073 34.2324 140.254 34.4479 140.254 35.0052V35.1701H136.888C135.909 35.1701 135.613 35.5754 135.613 36.3037V36.7218C135.613 37.5833 135.909 37.9505 136.888 37.9505H140.828C141.306 37.9505 141.439 37.8177 141.439 37.2539V34.9483C141.439 33.6943 140.961 33.1875 139.469 33.1875H135.897ZM140.019 36.9943H137.233C136.894 36.9943 136.767 36.8547 136.767 36.5445V36.3607C136.767 36.0822 136.894 35.9366 137.233 35.9366H140.26V36.6966C140.26 36.912 140.194 36.9943 140.019 36.9943Z" fill="#B38E36"/>
<path fill-rule="evenodd" clip-rule="evenodd" d="M144.219 33.1833C142.733 33.1833 142.249 33.6837 142.249 34.944V36.192C142.249 37.4459 142.727 37.9403 144.219 37.9403H146.534C148.021 37.9403 148.504 37.4459 148.504 36.192V31.6312C148.504 31.4984 148.444 31.4414 148.323 31.4414H147.513C147.386 31.4414 147.332 31.5048 147.332 31.6312V33.1833H144.219ZM146.419 36.9014H144.334C143.621 36.9014 143.434 36.6731 143.434 35.9448V35.172C143.434 34.4437 143.621 34.2157 144.334 34.2157H147.326V35.9384C147.326 36.6671 147.138 36.895 146.413 36.895L146.419 36.9014Z" fill="#B38E36"/>
<path fill-rule="evenodd" clip-rule="evenodd" d="M151.32 33.1861C149.833 33.1861 149.35 33.6865 149.35 34.9469V36.1948C149.35 37.4487 149.827 37.9427 151.32 37.9427H154.885C154.982 37.9427 155.036 37.8921 155.036 37.7846V37.0563C155.036 36.9548 154.988 36.8978 154.885 36.8978H151.434C150.715 36.8978 150.522 36.6699 150.522 36.125V35.9159H154.698C155.018 35.9159 155.169 35.7955 155.169 35.4219V34.5986C155.169 33.5469 154.873 33.1797 153.737 33.1797H151.314L151.32 33.1861ZM150.528 34.9216C150.528 34.3642 150.715 34.1487 151.44 34.1487H153.519C153.9 34.1487 154.021 34.288 154.021 34.6427V35.0038C154.021 35.1178 153.979 35.1495 153.882 35.1495H150.534V34.9152L150.528 34.9216Z" fill="#B38E36"/>
<path fill-rule="evenodd" clip-rule="evenodd" d="M160.773 33.1875C159.286 33.1875 158.802 33.6879 158.802 34.9483V37.7543C158.802 37.8871 158.869 37.9445 158.99 37.9445H159.8C159.927 37.9445 159.981 37.8811 159.981 37.7543V35.2396C159.981 34.5113 160.168 34.2833 160.881 34.2833H162.29V37.7543C162.29 37.8871 162.35 37.9445 162.471 37.9445H163.281C163.408 37.9445 163.468 37.8811 163.468 37.7543V34.2833H164.925C165.644 34.2833 165.777 34.5113 165.777 35.2396V37.7543C165.777 37.8871 165.837 37.9445 165.958 37.9445H166.768C166.895 37.9445 166.949 37.8811 166.949 37.7543V34.9483C166.949 33.6943 166.478 33.1875 164.991 33.1875H160.767H160.773Z" fill="#B38E36"/>
<path fill-rule="evenodd" clip-rule="evenodd" d="M168.085 33.1875C167.988 33.1875 167.933 33.2381 167.933 33.3456V34.0743C167.933 34.1883 167.982 34.2324 168.085 34.2324H171.541C172.261 34.2324 172.442 34.4479 172.442 35.0052V35.1701H169.076C168.097 35.1701 167.801 35.5754 167.801 36.3037V36.7218C167.801 37.5833 168.097 37.9505 169.076 37.9505H173.016C173.494 37.9505 173.626 37.8177 173.626 37.2539V34.9483C173.626 33.6943 173.149 33.1875 171.656 33.1875H168.085ZM172.206 36.9943H169.42C169.082 36.9943 168.955 36.8547 168.955 36.5445V36.3607C168.955 36.0822 169.082 35.9366 169.42 35.9366H172.448V36.6966C172.448 36.912 172.382 36.9943 172.206 36.9943Z" fill="#B38E36"/>
<path fill-rule="evenodd" clip-rule="evenodd" d="M174.279 33.1829C174.183 33.1829 174.128 33.2334 174.128 33.341V34.0504C174.128 34.1519 174.176 34.2089 174.279 34.2089H175.065V36.2232C175.065 37.4519 175.421 37.9459 176.745 37.9459H177.748C177.857 37.9459 177.899 37.8953 177.899 37.7878V37.0783C177.899 36.9768 177.857 36.9198 177.748 36.9198H176.944C176.4 36.9198 176.249 36.6919 176.249 36.2168V34.2025H177.7C177.808 34.2025 177.851 34.1519 177.851 34.044V33.3346C177.851 33.2334 177.808 33.1764 177.7 33.1764H176.249V32.03C176.249 31.8968 176.183 31.8398 176.068 31.8398H175.246C175.131 31.8398 175.065 31.9032 175.065 32.03V33.1764H174.279V33.1829Z" fill="#B38E36"/>
<path fill-rule="evenodd" clip-rule="evenodd" d="M178.498 33.1829C178.401 33.1829 178.346 33.2334 178.346 33.341V34.0504C178.346 34.1519 178.395 34.2089 178.498 34.2089H179.283V36.2232C179.283 37.4519 179.64 37.9459 180.963 37.9459H181.967C182.075 37.9459 182.118 37.8953 182.118 37.7878V37.0783C182.118 36.9768 182.075 36.9198 181.967 36.9198H181.163C180.619 36.9198 180.468 36.6919 180.468 36.2168V34.2025H181.918C182.027 34.2025 182.069 34.1519 182.069 34.044V33.3346C182.069 33.2334 182.027 33.1764 181.918 33.1764H180.468V32.03C180.468 31.8968 180.401 31.8398 180.286 31.8398H179.465C179.35 31.8398 179.283 31.9032 179.283 32.03V33.1764H178.498V33.1829Z" fill="#B38E36"/>
<path fill-rule="evenodd" clip-rule="evenodd" d="M184.571 33.1861C183.084 33.1861 182.601 33.6865 182.601 34.9469V36.1948C182.601 37.4487 183.078 37.9427 184.571 37.9427H188.136C188.233 37.9427 188.287 37.8921 188.287 37.7846V37.0563C188.287 36.9548 188.239 36.8978 188.136 36.8978H184.686C183.966 36.8978 183.773 36.6699 183.773 36.125V35.9159H187.949C188.269 35.9159 188.42 35.7955 188.42 35.4219V34.5986C188.42 33.5469 188.124 33.1797 186.988 33.1797H184.565L184.571 33.1861ZM183.779 34.9216C183.779 34.3642 183.966 34.1487 184.691 34.1487H186.77C187.151 34.1487 187.272 34.288 187.272 34.6427V35.0038C187.272 35.1178 187.23 35.1495 187.133 35.1495H183.785V34.9152L183.779 34.9216Z" fill="#B38E36"/>
<path fill-rule="evenodd" clip-rule="evenodd" d="M191.256 33.1847C189.769 33.1847 189.285 33.6851 189.285 34.9455V37.7515C189.285 37.8843 189.352 37.9417 189.473 37.9417H190.283C190.409 37.9417 190.464 37.8783 190.464 37.7515V35.1734C190.464 34.4451 190.651 34.2172 191.364 34.2172H193.564C193.661 34.2172 193.715 34.1726 193.715 34.0587V33.3304C193.715 33.2289 193.667 33.1719 193.564 33.1719H191.25L191.256 33.1847Z" fill="#B38E36"/>
<path fill-rule="evenodd" clip-rule="evenodd" d="M195.583 33.1875C194.61 33.1875 194.283 33.6562 194.283 34.3781V34.7581C194.283 35.5184 194.646 35.9301 195.577 35.9301H198.356C198.695 35.9301 198.822 36.0694 198.822 36.2913V36.5256C198.822 36.8233 198.695 36.9433 198.356 36.9433H194.434C194.338 36.9433 194.283 36.9943 194.283 37.1018V37.7984C194.283 37.9 194.332 37.9569 194.434 37.9569H198.671C199.65 37.9569 199.97 37.5071 199.97 36.7407V36.2532C199.97 35.5056 199.607 35.0939 198.677 35.0939H195.891C195.552 35.0939 195.438 34.9547 195.438 34.7203V34.5871C195.438 34.3339 195.552 34.1947 195.891 34.1947H199.62C199.716 34.1947 199.771 34.1437 199.771 34.0362V33.3456C199.771 33.2445 199.722 33.1875 199.62 33.1875H195.583Z" fill="#B38E36"/>
<path fill-rule="evenodd" clip-rule="evenodd" d="M183.496 7.93034L181.049 1.64053L185.575 3.81947L188.023 0L190.471 3.81947L194.997 1.64053L192.55 7.93034H183.503H183.496ZM188.017 6.73951H191.746L192.803 3.89547L188.017 6.22011L183.23 3.89547L184.288 6.73951H188.017ZM188.017 5.02294L189.328 4.39589L188.017 2.24226L186.705 4.39589L188.017 5.02294Z" fill="#B38E36"/>
<path fill-rule="evenodd" clip-rule="evenodd" d="M18.0329 8.86013C14.1893 8.86013 12.7026 10.298 12.7026 14.1238V22.3835C12.7026 22.6812 12.8537 22.8205 13.1378 22.8205H15.1925C15.4766 22.8205 15.6095 22.6812 15.6095 22.3835V17.1958H32.5915L27.9018 22.3011C27.7325 22.4785 27.7507 22.8205 28.0709 22.8205H30.5427C30.8691 22.8205 31.002 22.7382 31.1711 22.5418L35.891 17.3732L40.593 22.5418C40.7441 22.7382 40.895 22.8205 41.2034 22.8205H43.8081C44.1524 22.8205 44.1707 22.4785 43.9955 22.3011L37.8856 15.5806L48.9388 3.9385V3.71047C48.9388 2.75401 48.5883 1.8736 48.0142 1.21484L36.0605 13.7627L31.9086 9.1325C31.7574 8.95515 31.6063 8.85379 31.2982 8.85379H28.6935C28.3488 8.85379 28.3488 9.19583 28.5061 9.37318L33.4738 14.7382H15.5974V14.3391C15.5974 12.2425 16.1655 11.6281 18.1296 11.6281H26.3909C26.675 11.6281 26.826 11.4888 26.826 11.1911V9.29718C26.826 8.99949 26.675 8.86013 26.3909 8.86013H18.0148H18.0329Z" fill="white"/>
<defs>
<linearGradient id="paint0_linear_1553_20591" x1="7.93481" y1="15.8417" x2="48.9514" y2="15.8417" gradientUnits="userSpaceOnUse">
<stop stop-color="#006A3D"/>
<stop offset="1" stop-color="#004217"/>
</linearGradient>
<linearGradient id="paint1_linear_1553_20591" x1="7.93481" y1="15.8417" x2="48.9514" y2="15.8417" gradientUnits="userSpaceOnUse">
<stop stop-color="#006A3D"/>
<stop offset="1" stop-color="#004217"/>
</linearGradient>
</defs>
</svg>
