<svg width="20" height="19" viewBox="0 0 20 19" fill="none" xmlns="http://www.w3.org/2000/svg">
<g id="elements">
<path id="Ellipse 1574" d="M18.3334 9.49935C18.3334 14.1017 14.6025 17.8327 10.0001 17.8327C5.39771 17.8327 1.66675 14.1017 1.66675 9.49935C1.66675 4.89698 5.39771 1.16602 10.0001 1.16602C14.6025 1.16602 18.3334 4.89698 18.3334 9.49935Z" stroke="white" stroke-width="1.5"/>
<path id="Vector" d="M11.5417 7.93852C11.5417 8.35274 11.8775 8.68852 12.2917 8.68852C12.7059 8.68852 13.0417 8.35274 13.0417 7.93852H11.5417ZM8.25 11.0592C8.25 10.645 7.91421 10.3092 7.5 10.3092C7.08579 10.3092 6.75 10.645 6.75 11.0592H8.25ZM10.75 5.33203C10.75 4.91782 10.4142 4.58203 10 4.58203C9.58579 4.58203 9.25 4.91782 9.25 5.33203L10.75 5.33203ZM9.25 13.6654C9.25 14.0796 9.58579 14.4154 10 14.4154C10.4142 14.4154 10.75 14.0796 10.75 13.6654H9.25ZM10 8.62885C9.21448 8.62885 8.82431 8.50258 8.6464 8.38347C8.53272 8.30737 8.45833 8.20882 8.45833 7.93852H6.95833C6.95833 8.59627 7.19645 9.21789 7.81193 9.62994C8.36319 9.99899 9.11885 10.1289 10 10.1289V8.62885ZM8.45833 7.93852C8.45833 7.77086 8.54945 7.55575 8.82304 7.35514C9.09618 7.15485 9.50986 7.00814 10 7.00814V5.50814C9.22449 5.50814 8.49233 5.73759 7.93605 6.14549C7.38023 6.55305 6.95833 7.17813 6.95833 7.93852H8.45833ZM10 7.00814C10.4901 7.00814 10.9038 7.15485 11.177 7.35514C11.4506 7.55575 11.5417 7.77086 11.5417 7.93852H13.0417C13.0417 7.17813 12.6198 6.55305 12.0639 6.14549C11.5077 5.73759 10.7755 5.50814 10 5.50814V7.00814ZM11.75 11.0592C11.75 11.375 11.6271 11.5601 11.3833 11.7055C11.0941 11.8782 10.6228 11.9896 10 11.9896V13.4896C10.758 13.4896 11.5366 13.361 12.1522 12.9935C12.8133 12.5989 13.25 11.9438 13.25 11.0592H11.75ZM10 11.9896C9.4383 11.9896 8.96344 11.8353 8.65062 11.625C8.3331 11.4116 8.25 11.1973 8.25 11.0592H6.75C6.75 11.8492 7.22654 12.4751 7.81385 12.8699C8.40584 13.2678 9.18098 13.4896 10 13.4896V11.9896ZM10 10.1289C10.7915 10.1289 11.2363 10.2487 11.4671 10.3983C11.6297 10.5037 11.75 10.6606 11.75 11.0592H13.25C13.25 10.2576 12.9536 9.5743 12.2829 9.13958C11.6804 8.74905 10.8752 8.62885 10 8.62885V10.1289ZM10.75 6.25814L10.75 5.33203L9.25 5.33203L9.25 6.25814L10.75 6.25814ZM9.25 12.7396V13.6654H10.75V12.7396H9.25Z" fill="white"/>
</g>
</svg>
