<svg width="19" height="19" viewBox="0 0 19 19" fill="none" xmlns="http://www.w3.org/2000/svg">
<g id="elements">
<path id="Vector" d="M14.1667 12.7045C14.1667 11.8548 14.9129 11.166 15.8334 11.166C16.7539 11.166 17.5001 11.8548 17.5001 12.7045C17.5001 13.0107 17.4031 13.2961 17.236 13.5359C16.7379 14.2504 15.8334 14.9317 15.8334 15.7814V16.166M15.8253 17.8327H15.8328" stroke="white" stroke-width="1.5" stroke-linecap="round" stroke-linejoin="round"/>
<path id="Vector_2" d="M13.3334 17.8327H5.49247C4.20466 17.8327 3.18034 17.206 2.26063 16.3298C0.377885 14.5361 3.46908 13.1027 4.64806 12.4007C6.77346 11.1351 9.33818 10.8425 11.6667 11.5228" stroke="white" stroke-width="1.5" stroke-linecap="round" stroke-linejoin="round"/>
<path id="Ellipse 1383" d="M13.75 4.91602C13.75 6.98708 12.0711 8.66602 10 8.66602C7.92893 8.66602 6.25 6.98708 6.25 4.91602C6.25 2.84495 7.92893 1.16602 10 1.16602C12.0711 1.16602 13.75 2.84495 13.75 4.91602Z" stroke="white" stroke-width="1.5"/>
</g>
</svg>
